<svg width="91" height="25" viewBox="0 0 91 25" fill="none" xmlns="http://www.w3.org/2000/svg">
<path d="M0 0V25H90.4816V0H0Z" fill="#49659C"/>
<path d="M39.5502 21.2479C36.9107 22.5058 33.8506 23.1837 31.3728 20.9942C31.1888 20.8318 31.0438 20.6547 31.0951 20.3915C31.1741 19.9848 31.5779 19.6058 31.7903 19.263C32.1422 18.6952 32.4367 18.0589 32.6413 17.4199C33.4098 15.0185 33.338 11.6511 31.2171 9.98103C28.6952 7.99517 25.7038 9.86584 24.8778 12.5994C24.0724 15.2645 25.086 18.4432 26.9126 20.3972C25.2169 20.8957 23.6637 21.7643 21.9131 22.1455C17.7003 23.0631 13.1148 22.1805 9.41431 19.9702C7.20818 18.6525 5.19731 16.8557 3.70789 14.726C3.18217 13.9743 2.48426 12.7937 1.39128 13.4754C0.173424 14.2351 1.62316 16.0134 2.1448 16.711C4.02911 19.2308 6.58357 21.4265 9.41431 22.7637C13.699 24.7874 18.2754 25.3394 22.8852 24.3371C24.2212 24.0468 25.5198 23.602 26.7737 23.0512C27.3036 22.8184 28.1359 22.1944 28.718 22.261C29.6301 22.3654 30.6348 23.4964 31.4955 23.8814C33.7441 24.8877 36.08 25.1711 38.4392 24.4256C39.3694 24.1315 40.4346 23.7158 41.0778 22.9492C42.1688 23.9658 43.5927 24.8265 45.1052 24.9208C47.6965 25.0825 50.1124 22.8263 50.7991 20.3972H51.0768C52.8142 25.2332 59.9547 26.2195 63.4366 22.9361C64.2423 22.1763 64.9189 21.2901 65.3489 20.2554C65.6082 19.6313 65.6634 18.5616 66.2459 18.1677C67.0144 17.648 68.1246 17.3967 68.9917 17.0877C71.1862 16.3052 73.5924 15.5883 75.9355 15.5769C79.1288 15.5611 82.266 16.1342 85.1012 17.7075C85.9698 18.1894 87.5436 19.6686 88.5184 18.7648C89.2489 18.0875 88.8239 17.1961 88.154 16.6969C86.7259 15.633 84.9756 14.8152 83.2959 14.2736C79.5107 13.0532 75.5058 12.848 71.6304 13.7669C69.6878 14.2275 67.8635 15.1106 65.9365 15.5767C65.6857 14.2175 65.3907 12.8435 64.502 11.7488C63.8471 10.9419 62.998 10.3244 62.048 9.93498C61.2262 9.59811 60.4317 9.46019 59.5482 9.48229C54.3835 9.61146 52.7099 16.9392 57.1873 19.4735C58.0866 19.9825 58.952 20.1254 59.9648 20.1131C61.0496 20.0999 62.2014 19.7781 63.159 19.263C61.7023 22.3889 57.7295 23.4405 54.9653 21.4196C53.5913 20.4151 52.8514 18.8944 52.4071 17.2781C52.0555 15.9982 52.2567 14.7161 52.0012 13.4502C51.8907 12.9028 51.5161 12.4122 50.938 12.3631C49.5289 12.2432 49.6005 14.1881 49.5546 15.1514C49.457 17.2002 49.0011 19.2925 47.777 20.9642C46.8107 22.284 45.4805 22.8764 43.9942 22.0794C43.6534 21.8967 43.0683 21.5936 42.9846 21.1641C42.9032 20.7467 43.43 20.183 43.6041 19.8301C44.088 18.8493 44.5067 17.7747 44.775 16.711C45.447 14.0459 45.6607 11.3733 45.6607 8.62953C45.6607 6.67339 45.4046 4.47088 44.2852 2.81658C43.9806 2.36649 43.6006 1.96806 43.161 1.654C42.8209 1.41112 42.4488 1.24948 42.05 1.13787C39.2413 0.352073 37.5636 3.275 37.0349 5.65217C36.5994 7.61082 36.7024 9.76649 36.888 11.7487C37.0628 13.6166 37.242 15.4776 37.8169 17.2781C38.2653 18.683 38.9836 19.9055 39.5502 21.2479Z" fill="#FCD75B"/>
<path d="M41.0778 19.1212H41.3556C42.9133 15.3014 43.6717 11.384 43.2762 7.21176C43.1693 6.08404 42.7246 3.44849 41.2167 3.44849C39.7327 3.44849 39.2667 6.09376 39.1573 7.21176C38.7508 11.3615 39.5268 15.318 41.0778 19.1212ZM28.3018 11.7122C26.4423 12.4441 26.9143 15.7158 27.5291 17.1363C27.7409 17.6257 28.3106 18.9726 28.9957 18.7886C29.4867 18.6568 29.8428 17.9827 30.0613 17.5617C30.7485 16.2369 31.0102 14.4646 30.5511 13.0247C30.2507 12.0828 29.2929 11.3221 28.3018 11.7122ZM63.5756 16.711C63.5754 15.8205 63.529 14.9895 63.1756 14.159C62.9238 13.5672 62.5436 13.0565 62.0474 12.6547C61.6056 12.2971 61.0733 12.0633 60.5203 11.9568C59.9884 11.8543 59.3756 11.8433 58.8538 12.0039C56.945 12.5918 56.288 15.1588 57.5389 16.6978C58.2014 17.5127 59.1049 17.765 60.1037 17.6907C61.3262 17.5997 62.388 16.9195 63.5756 16.711Z" fill="#49659C"/>
</svg>
